<svg width="180" height="72" viewBox="0 0 180 72" fill="none" xmlns="http://www.w3.org/2000/svg">
<rect width="180" height="72" rx="8" fill="#14142D"/>
<path opacity="0.7" d="M36.5436 18.63H34.1836V17.75H39.9236V18.63H37.5636V25H36.5436V18.63ZM43.4549 25.13C41.3649 25.13 40.0549 23.56 40.0549 21.37C40.0549 19.18 41.3649 17.62 43.4549 17.62C45.5449 17.62 46.8549 19.18 46.8549 21.37C46.8549 23.56 45.5449 25.13 43.4549 25.13ZM43.4549 24.27C44.7749 24.27 45.8149 23.24 45.8149 21.37C45.8149 19.5 44.7749 18.48 43.4549 18.48C42.1349 18.48 41.0949 19.5 41.0949 21.37C41.0949 23.24 42.1349 24.27 43.4549 24.27ZM50.4972 17.75C52.2672 17.75 53.5072 18.15 53.5072 19.94C53.5072 21.74 52.2672 22.13 50.4972 22.13H49.2472V25H48.2272V17.75H50.4972ZM49.2472 18.61V21.24H50.5772C51.6372 21.24 52.4672 21.13 52.4672 19.94C52.4672 18.76 51.6372 18.61 50.5772 18.61H49.2472ZM58.4577 18.63H56.0977V17.75H61.8377V18.63H59.4777V25H58.4577V18.63ZM62.6998 17.75H67.6198V18.63H63.7198V20.83H67.3898V21.71H63.7198V24.12H67.6198V25H62.6998V17.75ZM70.6627 17.75H71.8427L74.5727 25H73.4727L72.9027 23.43H69.5727L69.0127 25H67.9727L70.6627 17.75ZM69.8827 22.56H72.5827L71.2227 18.78L69.8827 22.56ZM78.4542 25L76.4542 18.68V25H75.4342V17.75H77.1442L78.9942 23.79L80.8442 17.75H82.5542V25H81.5342V18.68L79.5342 25H78.4542ZM92.4352 23.84L93.7752 17.75H94.8452L93.0352 25H91.7952L90.3952 19.04L89.0252 25H87.7852L85.9452 17.75H87.0652L88.4652 23.84L89.8052 17.75H91.0052L92.4352 23.84ZM98.8065 25.13C96.7165 25.13 95.4065 23.56 95.4065 21.37C95.4065 19.18 96.7165 17.62 98.8065 17.62C100.896 17.62 102.206 19.18 102.206 21.37C102.206 23.56 100.896 25.13 98.8065 25.13ZM98.8065 24.27C100.126 24.27 101.166 23.24 101.166 21.37C101.166 19.5 100.126 18.48 98.8065 18.48C97.4865 18.48 96.4465 19.5 96.4465 21.37C96.4465 23.24 97.4865 24.27 98.8065 24.27ZM106.429 21.94C106.249 21.95 106.069 21.95 105.879 21.95H104.599V25H103.579V17.75H105.879C107.649 17.75 108.899 18.1 108.899 19.84C108.899 20.99 108.349 21.54 107.459 21.78L109.139 25H107.999L106.429 21.94ZM104.599 18.61V21.09H105.959C107.019 21.09 107.849 20.98 107.849 19.86C107.849 18.74 107.019 18.61 105.959 18.61H104.599ZM111.386 24.12H115.216V25H110.366V17.75H111.386V24.12ZM118.059 17.75C120.359 17.75 122.009 18.61 122.009 21.37C122.009 24.14 120.359 25 118.059 25H116.079V17.75H118.059ZM118.029 18.61H117.099V24.14H118.029C119.529 24.14 120.969 23.84 120.969 21.37C120.969 18.91 119.529 18.61 118.029 18.61ZM129.066 23.84L130.406 17.75H131.476L129.666 25H128.426L127.026 19.04L125.656 25H124.416L122.576 17.75H123.696L125.096 23.84L126.436 17.75H127.636L129.066 23.84ZM133.515 25H132.495V17.75H133.515V25ZM137.219 17.75C139.519 17.75 141.169 18.61 141.169 21.37C141.169 24.14 139.519 25 137.219 25H135.239V17.75H137.219ZM137.189 18.61H136.259V24.14H137.189C138.689 24.14 140.129 23.84 140.129 21.37C140.129 18.91 138.689 18.61 137.189 18.61ZM142.544 17.75H147.464V18.63H143.564V20.83H147.234V21.71H143.564V24.12H147.464V25H142.544V17.75Z" fill="white"/>
<path d="M77.5766 43.6056C78.4223 43.6056 79.1078 42.9316 79.1078 42.1004C79.1078 41.269 78.4223 40.5952 77.5766 40.5952C76.7308 40.5952 76.0453 41.269 76.0453 42.1004C76.0453 42.9316 76.7308 43.6056 77.5766 43.6056ZM128.112 48.7483C127.879 48.5873 127.699 48.5606 127.55 48.8732C124.978 54.3471 120.644 51.6156 121.074 51.8559C122.036 51.4238 124.564 49.4312 124.182 46.6798C123.95 44.9983 122.481 44.2524 120.923 44.5195C118.201 44.9857 117.2 47.8698 117.71 50.4232C117.799 50.8618 117.959 51.2234 118.118 51.5777C115.043 54.0349 113.822 49.378 113.683 48.8215C113.678 48.7917 116.057 46.8424 116.719 42.1975C117.413 37.3294 115.833 36.443 114.217 36.4706C111.227 36.5218 110.418 42.6616 111.504 47.7786C111.413 47.8019 110.99 48.0322 110.31 48.058C109.821 46.5452 107.73 45.2191 107.183 45.7301C105.814 47.0084 107.515 49.5075 108.712 49.7035C107.993 54.0562 103.496 52.9782 104.333 47.5249C105.798 44.8522 106.911 40.8781 106.713 38.479C106.642 37.6296 106.003 36.4916 104.558 36.5481C101.778 36.6561 101.476 42.7976 101.802 47.1564C101.786 47.0491 101.631 47.686 100.492 48.0027C100.223 46.533 97.8144 45.0577 97.2475 45.767C96.1863 47.0945 98.0254 49.4614 98.8965 49.6265C98.1774 53.9791 93.6801 52.9011 94.5173 47.4477C95.9818 44.7752 97.0956 40.8011 96.8968 38.402C96.8264 37.5525 96.1875 36.4145 94.7421 36.4708C91.9624 36.579 91.6602 42.7204 91.9861 47.0793C91.9697 46.9702 91.8114 47.6281 90.6258 47.9396C90.5861 46.0328 88.1692 45.1584 87.5886 45.7668C86.5538 46.8514 87.8256 49.0766 89.0021 49.6265C88.2829 53.9791 83.7856 52.9011 84.6228 47.4477C86.0874 44.7752 87.2013 40.8011 87.0024 38.402C86.9321 37.5525 86.2931 36.4145 84.8477 36.4708C82.0681 36.579 81.8444 43.0292 82.1703 47.3879C81.2547 51.2428 78.1843 56.0569 78.5832 46.4133C78.6226 45.7368 78.6656 45.4799 78.3224 45.2266C78.0652 45.0298 77.4804 45.1245 77.1608 45.1323C76.7723 45.1476 76.6749 45.371 76.589 45.7087C76.389 46.5806 76.353 47.4259 76.3244 48.5792C76.3057 49.1187 76.2617 49.3705 76.0502 50.1061C75.8391 50.8416 74.6345 52.186 73.9749 51.9612C73.0599 51.652 73.3601 49.1136 73.5316 47.3696C73.6744 45.9913 73.2169 45.3724 72.0448 45.1473C71.3585 45.0068 70.9416 45.0283 70.2269 44.807C69.5511 44.5976 69.3982 43.3413 67.9568 43.76C67.1683 43.9892 67.6752 45.6308 67.4857 46.8475C66.5541 52.8327 64.6158 52.9971 63.7165 50.0897C67.7666 40.3419 64.8881 36.499 63.2032 36.499C61.4482 36.499 59.4422 37.6869 60.2916 45.2876C59.8786 45.1692 59.7516 45.1054 59.2994 45.1054C56.7422 45.1054 55 47.1369 55 49.6429C55 52.149 56.7424 54.1806 59.2996 54.1806C60.8092 54.1806 61.8691 53.5059 62.6718 52.4622C63.1955 53.1993 63.8333 54.1919 64.9995 54.1473C68.4757 54.0142 69.4867 47.0068 69.6061 46.6159C69.9777 46.6722 70.3292 46.7788 70.6724 46.8351C71.2442 46.9194 71.2858 47.1418 71.2728 47.707C71.1213 52.4729 72.0162 54.1416 74.0462 54.1416C75.1772 54.1416 76.1853 53.0495 76.8798 52.2687C77.3985 53.3207 78.225 54.1094 79.3338 54.1415C82.0206 54.2071 83.0493 49.9987 82.9555 50.5526C82.8819 50.9871 83.8272 54.1178 86.5932 54.1291C90.0195 54.1433 90.6564 50.4405 90.7323 49.8203C90.7419 49.6969 90.7461 49.7097 90.7323 49.8203L90.7297 49.8579C91.8175 49.6591 92.3787 49.086 92.3787 49.086C92.3787 49.086 93.2522 54.1867 96.4875 54.1293C99.8473 54.0694 100.481 50.7223 100.564 50.0697C100.575 49.9148 100.581 49.9329 100.564 50.0697C100.564 50.076 100.563 50.0824 100.563 50.0888C101.855 49.6269 102.195 49.1633 102.195 49.1633C102.195 49.1633 102.889 54.1626 106.303 54.2063C109.346 54.2454 110.474 51.1833 110.481 49.9016C110.994 49.907 111.943 49.6023 111.921 49.585C111.921 49.585 113.036 53.9561 116.148 54.1806C117.609 54.286 118.706 53.3725 119.331 52.9558C120.799 54.1246 125.69 55.6174 128.777 50.4727C129.213 49.7344 128.276 48.8622 128.112 48.7483ZM59.1762 52.4835C57.6842 52.4835 56.7275 51.1278 56.7275 49.666C56.7275 48.2044 57.6057 46.8487 59.0977 46.8487C59.7691 46.8487 60.1426 46.9213 60.6654 47.3682C60.7602 47.7354 61.029 48.5823 61.1597 48.967C61.3349 49.4817 61.5433 49.9198 61.7535 50.3966C61.4533 51.6195 60.4692 52.4835 59.1762 52.4835ZM62.8119 47.4111C62.7498 47.314 62.7628 47.3737 62.6934 47.2819C62.4199 46.5508 61.8929 44.919 61.8318 43.0655C61.7628 40.9687 62.1184 38.5111 63.1668 38.5111C63.8771 38.5111 64.6321 43.492 62.8118 47.4111H62.8119ZM83.8193 45.2265C83.651 43.9822 83.6422 38.4355 84.9972 38.5882C85.7454 38.886 84.5228 44.1201 83.8193 45.2265ZM93.7137 45.2265C93.5454 43.9822 93.5366 38.4355 94.8916 38.5882C95.6398 38.886 94.4173 44.1201 93.7137 45.2265ZM103.53 45.3038C103.361 44.0594 103.353 38.5126 104.707 38.6654C105.456 38.9632 104.233 44.1974 103.53 45.3038ZM114.366 38.2636C115.605 38.1373 115.554 43.4538 113.067 46.8102C112.747 45.5971 112.255 38.6801 114.366 38.2634V38.2636ZM119.573 49.7035C119.176 47.7283 120.204 46.431 121.264 46.2887C121.634 46.2306 122.171 46.4665 122.278 46.9074C122.454 47.7383 122.252 48.9709 119.88 50.5348C119.884 50.5482 119.662 50.1434 119.574 49.7035H119.573Z" fill="#E84F8A"/>
</svg>
